<svg id="Layer_1" data-name="Layer 1" xmlns="http://www.w3.org/2000/svg" viewBox="0 0 16 16"><defs><style>.cls-1{fill:#007acc;}.cls-2{fill:#fff;}</style></defs><title>upArtboard 1</title><path class="cls-1" d="M13.5,2H12V.5a.5.5,0,0,0-.5-.5h-9A1.5,1.5,0,0,0,1,1.5V14a2,2,0,0,0,2,2H13.5a.5.5,0,0,0,.5-.5V2.5A.5.5,0,0,0,13.5,2ZM7.87,13.83a.49.49,0,0,1-.74,0C6.81,13.48,4,10.3,4,8.5a3.5,3.5,0,0,1,7,0C11,10.3,8.19,13.48,7.87,13.83ZM11,2H2.5a.5.5,0,0,1,0-1H11Z"/><circle class="cls-1" cx="7.5" cy="8.5" r="1.5"/><rect class="cls-1" x="3.26" y="4.27" width="8.93" height="10.7"/><rect class="cls-2" x="3.26" y="7.88" width="9.49" height="6.57"/><path class="cls-1" d="M3,14.62H13V7.7H3ZM8.46,12.7,9,12.41l.38-.22.08.12a1.74,1.74,0,0,0,.5.48,1.19,1.19,0,0,0,1.27-.07.46.46,0,0,0,.18-.39.47.47,0,0,0-.1-.33c-.1-.15-.31-.27-.91-.53a3.17,3.17,0,0,1-1.23-.76,1.64,1.64,0,0,1-.36-.66,2.62,2.62,0,0,1,0-.84A1.6,1.6,0,0,1,10.08,8a3.35,3.35,0,0,1,1,0,1.71,1.71,0,0,1,.82.48,2.44,2.44,0,0,1,.32.42s-.57.4-.92.62a.51.51,0,0,1-.12-.13A.74.74,0,0,0,10.57,9c-.4,0-.66.19-.66.53a.49.49,0,0,0,.06.25c.09.18.25.29.76.51a3.3,3.3,0,0,1,1.59,1.05A1.92,1.92,0,0,1,12.48,13,1.8,1.8,0,0,1,11,14a4.19,4.19,0,0,1-1,0,2.48,2.48,0,0,1-1.34-.7,2.3,2.3,0,0,1-.34-.51ZM3.36,8.55a4.07,4.07,0,0,1,0-.54H8V9.08H6.29v4.86H5.08V9.08H3.36Z"/></svg>